<svg width="889" height="889" viewBox="0 0 889 889" fill="none" xmlns="http://www.w3.org/2000/svg">
<path d="M444.03 887.94C689.195 887.94 887.94 689.195 887.94 444.03C887.94 198.865 689.195 0.119995 444.03 0.119995C198.865 0.119995 0.119995 198.865 0.119995 444.03C0.119995 689.195 198.865 887.94 444.03 887.94Z" fill="#FDDBCF"/>
<path d="M622.27 422.24L616.73 113.41C616.713 112.465 616.51 111.532 616.132 110.666C615.755 109.799 615.21 109.016 614.529 108.36C613.848 107.704 613.045 107.189 612.165 106.844C611.284 106.499 610.345 106.331 609.4 106.35L475.59 108.75C473.682 108.784 471.866 109.574 470.54 110.947C469.214 112.319 468.488 114.162 468.52 116.07L469.04 144.99L422.41 126.06L418.73 165.59C418.42 168.88 418.12 172.18 417.84 175.4C418.56 183.72 417.41 192.67 418.21 200.84C418.57 205.02 418.86 207.64 418.86 207.64C457.18 215.42 468.49 244.06 471.42 277.13L472.07 313.58C472.01 315.93 472.07 318.25 472.19 320.58L474.09 424.9C474.264 434.631 476.354 444.232 480.239 453.156C484.124 462.079 489.729 470.15 496.733 476.908C503.738 483.665 512.004 488.977 521.062 492.539C530.119 496.101 539.789 497.845 549.52 497.67C559.25 497.494 568.85 495.404 577.771 491.518C586.693 487.632 594.762 482.027 601.518 475.023C608.273 468.018 613.583 459.752 617.144 450.695C620.704 441.639 622.446 431.97 622.27 422.24Z" fill="#FF7B50"/>
<path d="M372.59 511.77L364.19 201.77C364.08 197.77 360.46 194.41 356.1 194.25L209.27 188.79C204.91 188.63 201.46 191.73 201.57 195.72L202.36 224.72L151.09 203.06L147.35 242.47C147.04 245.76 146.73 249.04 146.45 252.26C147.3 260.64 146.1 269.55 147.05 277.79C147.47 282 147.8 284.64 147.8 284.64C189.92 294.7 202.54 324.07 206 357.4L207 393.98C206.95 396.34 207 398.67 207.19 400.98L210.03 505.7C211.14 546.77 248.45 581.43 293.36 583.1C338.2 584.79 373.7 552.84 372.59 511.77Z" fill="#FF7B50"/>
<path d="M436.35 0.559978C237.15 3.84998 70.79 137.87 17.61 319.56L231.03 315.73C232.1 315.78 233.16 315.81 234.23 315.89C253.81 318.78 256.48 334.31 257.37 351.35L260.03 499.48C260.343 516.879 267.554 533.442 280.077 545.524C292.601 557.607 309.411 564.22 326.81 563.91L345.81 563.56C354.425 563.405 362.925 561.555 370.824 558.115C378.724 554.675 385.869 549.713 391.851 543.512C397.833 537.311 402.535 529.992 405.688 521.974C408.842 513.956 410.385 505.395 410.23 496.78L408.23 385.92L405.83 252.2C405.725 246.472 406.75 240.779 408.846 235.448C410.942 230.116 414.068 225.249 418.046 221.126C422.023 217.003 426.774 213.704 432.027 211.417C437.28 209.131 442.932 207.901 448.66 207.8L473.15 207.36C478.878 207.257 484.57 208.282 489.901 210.379C495.232 212.476 500.098 215.602 504.221 219.579C508.344 223.556 511.643 228.306 513.93 233.559C516.217 238.811 517.447 244.462 517.55 250.19L519.95 383.91H519.88L520.51 419.41C520.783 434.57 527.068 449 537.98 459.526C548.893 470.053 563.54 475.813 578.7 475.54L599.06 475.17C606.566 475.036 613.972 473.425 620.855 470.428C627.738 467.432 633.963 463.109 639.176 457.706C644.388 452.303 648.485 445.927 651.233 438.941C653.98 431.955 655.325 424.496 655.19 416.99L654.09 357.49C655.09 336.98 649.6 313.25 672.09 309.41C676.16 309.16 680.27 309.09 684.34 309.03L718.02 308.56C721.6 308.51 725.13 308.46 728.6 308.39C732.336 308.318 736.042 307.702 739.6 306.56L865.11 304.31C805.49 125.14 635.09 -2.73002 436.35 0.559978Z" fill="#F8A285"/>
<path d="M395.74 584.52C380.02 578.35 373.26 597.03 364.4 605.96C361.178 608.373 357.39 609.919 353.4 610.45C342.47 604.82 331.49 598.04 320.49 595.2C316.368 594.567 312.155 594.909 308.19 596.2C302.96 597.74 299.33 601.75 297.34 606.86C295.344 612.402 294.997 618.404 296.34 624.14C299.78 636.47 306.77 646.31 314.09 655.74L321.09 626.06L324.17 629.34L349.97 656.79L357.09 626.38L360.79 630.32L386.59 657.77L395.3 620.9L396.55 615.62L416.14 636.46C415.465 639.82 414.532 643.123 413.35 646.34C412.068 650.854 410.512 655.285 408.69 659.61C407.86 661.61 406.97 663.52 406.05 665.45C407.05 663.32 408.05 661.15 408.99 658.97C410.812 654.645 412.368 650.214 413.65 645.7C421.92 623.56 418.57 593.64 395.74 584.52Z" fill="#F8A285"/>
<path d="M328.52 736.84C334.872 730.131 338.568 721.342 338.92 712.11C339.089 708.77 338.935 705.421 338.46 702.11C338.865 705.189 338.995 708.298 338.85 711.4C338.492 720.616 334.783 729.384 328.42 736.06C324.53 740.17 323.19 742.58 323.75 743.55C323.95 742.32 325.43 740.12 328.52 736.84Z" fill="#F8A285"/>
<path d="M413.39 646.34C414.572 643.123 415.505 639.82 416.18 636.46L396.59 615.62L395.34 620.9L386.63 657.77L360.83 630.32L357.13 626.38L349.94 656.8L324.14 629.35L321.09 626.06L314.09 655.73L314.02 656.02C324.22 669.31 335.2 681.71 338.02 699.1C338.2 700.1 338.36 701.1 338.49 702.1C338.965 705.411 339.119 708.76 338.95 712.1C338.598 721.332 334.902 730.121 328.55 736.83C325.46 740.11 323.98 742.31 323.78 743.57C322.88 749.12 347.37 735.81 370.98 712.71C373.39 710.35 375.79 707.89 378.15 705.34C381.21 702.22 384.22 698.88 387.15 695.34C390.08 691.8 392.82 688.09 395.44 684.22C398.734 679.282 401.739 674.156 404.44 668.87L404.81 668.16C405.27 667.25 405.74 666.35 406.17 665.43C407.09 663.5 407.98 661.56 408.81 659.59C410.604 655.27 412.133 650.845 413.39 646.34Z" fill="#FF7B50"/>
<path d="M643.34 510.26C629.63 503.6 622.24 519.94 613.65 527.36C610.576 529.298 607.058 530.42 603.43 530.62C593.99 524.79 584.58 517.92 574.89 514.62C571.228 513.75 567.412 513.75 563.75 514.62C558.94 515.62 555.39 518.99 553.24 523.46C551.046 528.301 550.303 533.675 551.1 538.93C553.33 550.27 558.93 559.61 564.86 568.61L573.24 542.4L575.79 545.56L597.09 572.06L605.69 545.19L608.74 548.99L630.03 575.5L640.45 542.93L641.95 538.27L658.09 558.42C657.252 561.398 656.186 564.306 654.9 567.12C653.429 571.091 651.715 574.968 649.77 578.73C648.89 580.443 647.963 582.133 646.99 583.8C648.07 581.95 649.11 580.07 650.09 578.17C652.03 574.407 653.74 570.53 655.21 566.56C664.17 547.21 663.25 520.06 643.34 510.26Z" fill="#F8A285"/>
<path d="M572.21 642.62C578.4 637.017 582.342 629.354 583.3 621.06C583.686 618.053 583.784 615.016 583.59 611.99C583.74 614.79 583.64 617.598 583.29 620.38C582.337 628.669 578.385 636.323 572.18 641.9C568.39 645.32 567.01 647.4 567.45 648.31C567.72 647.23 569.2 645.35 572.21 642.62Z" fill="#F8A285"/>
<path d="M654.91 567.12C656.196 564.306 657.262 561.398 658.1 558.42L641.94 538.3L640.44 542.96L630.02 575.53L608.73 549.06L605.68 545.26L597.09 572.06L575.8 545.55L573.25 542.39L564.87 568.6L564.79 568.85C573.04 581.52 582.05 593.45 583.38 609.3C583.48 610.19 583.55 611.09 583.6 611.99C583.794 615.016 583.696 618.053 583.31 621.06C582.345 629.343 578.404 636.994 572.22 642.59C569.22 645.32 567.73 647.2 567.46 648.31C566.26 653.24 589.22 642.98 612.08 623.84C614.42 621.893 616.753 619.85 619.08 617.71C622.08 615.12 624.98 612.33 627.83 609.35C630.68 606.37 633.44 603.22 636.07 599.92C639.382 595.71 642.443 591.309 645.24 586.74C645.36 586.53 645.49 586.33 645.62 586.13C646.09 585.34 646.62 584.57 647.03 583.77C648.003 582.103 648.93 580.413 649.81 578.7C651.744 574.947 653.447 571.08 654.91 567.12Z" fill="#FF7B50"/>
<path d="M284.14 119.57C278.27 108.83 284.07 94.37 297.08 87.25L335.86 66.06C338.506 64.6077 341.344 63.5371 344.29 62.88C338.06 52.88 323.29 50.37 310.66 57.27L271.88 78.46C258.88 85.57 253.07 100.04 258.94 110.77C263.57 119.24 274.07 122.86 284.7 120.51C284.5 120.2 284.32 119.88 284.14 119.51V119.57Z" fill="#FFE8A8"/>
<path d="M370.09 72.63C365.46 64.16 354.95 60.55 344.33 62.89C341.384 63.5471 338.546 64.6177 335.9 66.07L297.09 87.25C284.09 94.37 278.28 108.83 284.15 119.57C284.33 119.89 284.51 120.21 284.71 120.57C290.94 130.52 305.71 133.08 318.34 126.18L357.09 104.95C370.09 97.83 375.91 83.37 370.09 72.63Z" fill="#FFCC3E"/>
<path d="M448.2 117.68C444.72 117.68 441.275 116.994 438.06 115.663C434.846 114.331 431.925 112.379 429.465 109.918C427.005 107.457 425.054 104.535 423.724 101.32C422.393 98.1053 421.709 94.6596 421.71 91.18V116.74C421.71 123.766 424.501 130.505 429.468 135.475C434.436 140.444 441.173 143.237 448.2 143.24C455.227 143.237 461.966 140.445 466.935 135.475C471.905 130.506 474.697 123.767 474.7 116.74V91.18C474.7 98.2082 471.908 104.949 466.938 109.918C461.969 114.888 455.228 117.68 448.2 117.68Z" fill="#FFE8A8"/>
<path d="M448.2 21.06C441.173 21.0626 434.436 23.8558 429.468 28.8252C424.501 33.7946 421.71 40.5335 421.71 47.56V91.15C421.709 94.6296 422.393 98.0753 423.724 101.29C425.054 104.505 427.005 107.427 429.465 109.888C431.925 112.349 434.846 114.301 438.06 115.633C441.275 116.964 444.72 117.65 448.2 117.65C455.228 117.65 461.969 114.858 466.938 109.888C471.908 104.919 474.7 98.1782 474.7 91.15V47.59C474.703 44.1078 474.019 40.6592 472.689 37.4412C471.358 34.2232 469.407 31.2989 466.946 28.8352C464.485 26.3715 461.563 24.4168 458.346 23.0827C455.13 21.7486 451.682 21.0613 448.2 21.06Z" fill="#FFCC3E"/>
<path d="M617.09 121.38C622.96 110.64 617.16 96.18 604.15 89.06L565.37 67.88C562.724 66.4277 559.886 65.3571 556.94 64.7C563.18 54.75 577.94 52.19 590.57 59.09L629.35 80.28C642.35 87.39 648.16 101.86 642.35 112.59C637.72 121.06 627.21 124.68 616.59 122.33C616.78 122.02 616.97 121.7 617.14 121.33L617.09 121.38Z" fill="#FFE8A8"/>
<path d="M531.16 74.44C535.79 65.97 546.3 62.36 556.92 64.7C559.866 65.3571 562.704 66.4277 565.35 67.88L604.09 89.06C617.09 96.18 622.9 110.64 617.03 121.38C616.86 121.7 616.67 122.02 616.48 122.38C610.25 132.33 595.48 134.89 582.85 127.99L544.09 106.75C531.09 99.64 525.3 85.18 531.16 74.44Z" fill="#FFCC3E"/>
</svg>
