<svg width="248" height="122" viewBox="0 0 248 122" fill="none" xmlns="http://www.w3.org/2000/svg">
<path d="M52.128 58.672C52.128 64.24 50.208 68.88 46.368 72.592C42.592 76.24 36.8 78.064 28.992 78.064H16.128V106H7.392V39.088H28.992C36.544 39.088 42.272 40.912 46.176 44.56C50.144 48.208 52.128 52.912 52.128 58.672ZM28.992 70.864C33.856 70.864 37.44 69.808 39.744 67.696C42.048 65.584 43.2 62.576 43.2 58.672C43.2 50.416 38.464 46.288 28.992 46.288H16.128V70.864H28.992ZM102.538 91.12H73.3538L67.9778 106H58.7617L82.9538 39.472H93.0338L117.13 106H107.914L102.538 91.12ZM100.042 84.016L87.9458 50.224L75.8498 84.016H100.042ZM142.649 38.608V106H126.233V38.608H142.649ZM170.962 38.608V106H154.546V38.608H170.962ZM219.53 106L203.594 78.64H193.034V106H184.298V39.088H205.898C210.954 39.088 215.21 39.952 218.666 41.68C222.186 43.408 224.81 45.744 226.538 48.688C228.266 51.632 229.13 54.992 229.13 58.768C229.13 63.376 227.786 67.44 225.098 70.96C222.474 74.48 218.506 76.816 213.194 77.968L229.994 106H219.53ZM193.034 71.632H205.898C210.634 71.632 214.186 70.48 216.554 68.176C218.922 65.808 220.106 62.672 220.106 58.768C220.106 54.8 218.922 51.728 216.554 49.552C214.25 47.376 210.698 46.288 205.898 46.288H193.034V71.632Z" fill="white"/>
</svg>
