<svg width="137" height="61" viewBox="0 0 137 61" fill="none" xmlns="http://www.w3.org/2000/svg">
<path d="M30.5002 60.9981C47.3407 60.9981 60.9926 47.3554 60.9926 30.5263C60.9926 13.6971 47.3407 0.0544434 30.5002 0.0544434C13.6598 0.0544434 0.00793457 13.6971 0.00793457 30.5263C0.00793457 47.3554 13.6598 60.9981 30.5002 60.9981Z" fill="#FFA284"/>
<path d="M23.0665 0.919234C11.0412 3.95105 2.48802 13.8429 0.456055 25.4478L51.4474 8.55512C44.16 1.50562 33.5722 -1.72849 23.0665 0.919234Z" fill="#FF7B50"/>
<path d="M23.4587 34.0772L22.3236 34.4434C19.8278 35.25 17.1501 33.8826 16.343 31.386L13.2041 21.6811C12.3969 19.187 13.7652 16.5111 16.2635 15.7045L17.3987 15.3383C19.8944 14.5317 22.5721 15.8991 23.3793 18.3957L26.5182 28.1006C27.3228 30.5947 25.9545 33.2706 23.4587 34.0772Z" fill="#FF7B50"/>
<path d="M31.617 28.0342L29.9643 28.5694C28.309 29.1045 26.5333 28.1955 25.9977 26.5439L22.2208 14.8724C21.6852 13.2182 22.5949 11.4437 24.2476 10.9085L25.9004 10.3733C27.5556 9.83814 29.3314 10.7472 29.8669 12.3988L33.6413 24.0703C34.1794 25.727 33.2723 27.5016 31.617 28.0342Z" fill="#FFA284"/>
<path d="M38.182 22.1677L37.9745 22.2343C35.4787 23.0409 32.801 21.6735 31.9939 19.1769L28.3322 7.85619C27.5251 5.36211 28.8934 2.68622 31.3917 1.87961L31.5993 1.81303C34.095 1.00643 36.7727 2.37382 37.5799 4.87046L41.2415 16.1911C42.0461 18.6878 40.6778 21.3637 38.182 22.1677Z" fill="#FF7B50"/>
<path d="M11.4873 21.7938C11.4873 21.7938 13.3143 21.1818 13.6756 23.1381C14.0369 25.0945 15.8305 22.7899 15.8305 22.7899L12.4994 18.4368L11.4873 21.7938Z" fill="#FF7B50"/>
<path d="M106.5 60.9981C89.6593 60.9981 76.0074 47.3554 76.0074 30.5263C76.0074 13.6971 89.6593 0.0544434 106.5 0.0544434C123.34 0.0544434 136.992 13.6971 136.992 30.5263C136.992 47.3554 123.34 60.9981 106.5 60.9981Z" fill="#FFA284"/>
<path d="M113.934 0.919234C125.959 3.95105 134.512 13.8429 136.544 25.4478L85.5526 8.55512C92.84 1.50562 103.428 -1.72849 113.934 0.919234Z" fill="#FF7B50"/>
<path d="M113.541 34.0772L114.676 34.4434C117.172 35.25 119.85 33.8826 120.657 31.386L123.796 21.6811C124.603 19.187 123.235 16.5111 120.736 15.7045L119.601 15.3383C117.106 14.5317 114.428 15.8991 113.621 18.3957L110.482 28.1006C109.677 30.5947 111.046 33.2706 113.541 34.0772Z" fill="#FF7B50"/>
<path d="M105.383 28.0342L107.036 28.5694C108.691 29.1045 110.467 28.1955 111.002 26.5439L114.779 14.8724C115.315 13.2182 114.405 11.4437 112.752 10.9085L111.1 10.3733C109.444 9.83814 107.669 10.7472 107.133 12.3988L103.359 24.0703C102.821 25.727 103.728 27.5016 105.383 28.0342Z" fill="#FFA284"/>
<path d="M98.818 22.1677L99.0255 22.2343C101.521 23.0409 104.199 21.6735 105.006 19.1769L108.668 7.85619C109.475 5.36211 108.107 2.68622 105.608 1.87961L105.401 1.81303C102.905 1.00643 100.227 2.37382 99.4201 4.87046L95.7585 16.1911C94.9539 18.6878 96.3222 21.3637 98.818 22.1677Z" fill="#FF7B50"/>
<path d="M125.513 21.7938C125.513 21.7938 123.686 21.1818 123.324 23.1381C122.963 25.0945 121.169 22.7899 121.169 22.7899L124.501 18.4368L125.513 21.7938Z" fill="#FF7B50"/>
</svg>
